<?xml version="1.0" standalone="no"?>
<svg viewBox="0 0 1024 1024" version="1.1" xmlns="http://www.w3.org/2000/svg" xmlns:xlink="http://www.w3.org/1999/xlink"
     width="1000" height="1000">
    <g transform="translate(20, 20) scale(0.95)" filter="url(#icon_shadow)">
        <path d="M128 128h768v768H128z" fill="#11111"></path>
        <path d="M256 256h512v512H256V256zM0 256h128v96H0V256z m0 192h128v96H0v-96z m0 192h128v96H0v-96zM896 256h128v96h-128V256z m0 192h128v96h-128v-96z m0 192h128v96h-128v-96zM768 0v128h-96V0h96z m-192 0v128h-96V0h96z m-192 0v128H288V0h96z m352 896v128h-96v-128h96z m-192 0v128h-96v-128h96z m-192 0v128H256v-128h96z"
              fill="#11111"></path>
    </g>
</svg>
